# Blender v2.80 (sub 75) OBJ File: ''
# www.blender.org
mtllib block.mtl
o Cube.001
v -1.000000 -0.600000 0.735605
v -0.600000 -1.000000 0.735605
v -0.980423 -0.723607 0.735605
v -0.923607 -0.835114 0.735605
v -0.835114 -0.923607 0.735605
v -0.723607 -0.980423 0.735605
v -0.600000 1.000000 0.735605
v -1.000000 0.600000 0.735605
v -0.723607 0.980423 0.735605
v -0.835114 0.923607 0.735605
v -0.923607 0.835114 0.735605
v -0.980423 0.723607 0.735605
v -0.600000 -1.000000 -0.735605
v -1.000000 -0.600000 -0.735605
v -0.723607 -0.980423 -0.735605
v -0.835114 -0.923607 -0.735605
v -0.923607 -0.835114 -0.735605
v -0.980423 -0.723607 -0.735605
v -1.000000 0.600000 -0.735605
v -0.600000 1.000000 -0.735605
v -0.980423 0.723607 -0.735605
v -0.923607 0.835114 -0.735605
v -0.835114 0.923607 -0.735605
v -0.723607 0.980423 -0.735605
v 0.600000 -1.000000 0.735605
v 1.000000 -0.600000 0.735605
v 0.723607 -0.980423 0.735605
v 0.835114 -0.923607 0.735605
v 0.923607 -0.835114 0.735605
v 0.980423 -0.723607 0.735605
v 1.000000 0.600000 0.735605
v 0.600000 1.000000 0.735605
v 0.980423 0.723607 0.735605
v 0.923607 0.835114 0.735605
v 0.835114 0.923607 0.735605
v 0.723607 0.980423 0.735605
v 1.000000 -0.600000 -0.735605
v 0.600000 -1.000000 -0.735605
v 0.980423 -0.723607 -0.735605
v 0.923607 -0.835114 -0.735605
v 0.835114 -0.923607 -0.735605
v 0.723607 -0.980423 -0.735605
v 0.600000 1.000000 -0.735605
v 1.000000 0.600000 -0.735605
v 0.723607 0.980423 -0.735605
v 0.835114 0.923607 -0.735605
v 0.923607 0.835114 -0.735605
v 0.980423 0.723607 -0.735605
vt 0.409549 0.997553
vt 0.384549 0.979389
vt 0.375000 0.950000
vt 0.575000 0.500000
vt 0.425000 0.750000
vt 0.425000 0.500000
vt 0.825000 0.500000
vt 0.675000 0.750000
vt 0.675000 0.500000
vt 0.575000 0.000000
vt 0.425000 0.250000
vt 0.425000 0.000000
vt 0.409549 0.499184
vt 0.364443 0.493130
vt 0.375000 0.450000
vt 0.175000 0.750000
vt 0.159549 0.500000
vt 0.175000 0.500000
vt 0.159549 0.750000
vt 0.145611 0.500000
vt 0.145611 0.750000
vt 0.125000 0.500000
vt 0.395611 0.000000
vt 0.409549 0.250000
vt 0.395611 0.250000
vt 0.409549 0.000000
vt 0.840451 0.750000
vt 0.825000 0.750000
vt 0.840451 0.500000
vt 0.854389 0.750000
vt 0.854389 0.500000
vt 0.875000 0.750000
vt 0.604389 0.250000
vt 0.590451 0.000000
vt 0.604389 0.000000
vt 0.590451 0.250000
vt 0.325000 0.500000
vt 0.352783 0.761516
vt 0.325000 0.750000
vt 0.352783 0.488484
vt 0.364443 0.756870
vt 0.395611 0.753183
vt 0.395611 0.496817
vt 0.409549 0.750816
vt 0.647217 0.488484
vt 0.647217 0.761516
vt 0.635558 0.493130
vt 0.635558 0.756870
vt 0.604389 0.496817
vt 0.604389 0.753183
vt 0.590451 0.499184
vt 0.590451 0.750816
vt 0.375000 0.800000
vt 0.575000 0.750000
vt 0.625000 0.800000
vt 0.625000 0.950000
vt 0.622553 0.965451
vt 0.604389 0.990451
vt 0.615451 0.979389
vt 0.590451 0.997553
vt 0.575000 1.000000
vt 0.425000 1.000000
vt 0.395611 0.990451
vt 0.377447 0.965451
vt 0.575000 0.250000
vt 0.375000 0.300000
vt 0.377447 0.284549
vt 0.384549 0.270611
vt 0.395611 0.259549
vt 0.409549 0.252447
vt 0.625000 0.300000
vt 0.590451 0.252447
vt 0.604389 0.259549
vt 0.615451 0.270611
vt 0.622553 0.284549
vt 0.625000 0.450000
vt 0.125000 0.750000
vt 0.875000 0.500000
vn 0.0000 0.0000 1.0000
vn 1.0000 0.0000 0.0000
vn 0.0000 1.0000 0.0000
vn -1.0000 0.0000 0.0000
vn -0.0000 0.0000 -1.0000
vn -0.1564 -0.9877 0.0000
vn -0.4540 -0.8910 0.0000
vn -0.7071 -0.7071 0.0000
vn -0.8910 -0.4540 0.0000
vn -0.9877 -0.1564 0.0000
vn -0.1564 0.9877 0.0000
vn -0.4540 0.8910 0.0000
vn -0.7071 0.7071 0.0000
vn -0.8910 0.4540 0.0000
vn -0.9877 0.1564 0.0000
vn 0.1564 -0.9877 0.0000
vn 0.4540 -0.8910 0.0000
vn 0.7071 -0.7071 0.0000
vn 0.8910 -0.4540 0.0000
vn 0.9877 -0.1564 0.0000
vn 0.1564 0.9877 0.0000
vn 0.4540 0.8910 0.0000
vn 0.7071 0.7071 0.0000
vn 0.8910 0.4540 0.0000
vn 0.9877 0.1564 0.0000
vn 0.0000 -1.0000 0.0000
usemtl None
s off
f 3/1/1 5/2/1 2/3/1
f 44/4/2 26/5/2 37/6/2
f 20/7/3 32/8/3 43/9/3
f 8/10/4 14/11/4 1/12/4
f 39/13/5 41/14/5 38/15/5
f 2/16/6 15/17/6 13/18/6
f 6/19/7 16/20/7 15/17/7
f 5/21/8 17/22/8 16/20/8
f 4/23/9 18/24/9 17/25/9
f 3/26/10 14/11/10 18/24/10
f 20/7/11 9/27/11 7/28/11
f 24/29/12 10/30/12 9/27/12
f 23/31/13 11/32/13 10/30/13
f 22/33/14 12/34/14 11/35/14
f 21/36/15 8/10/15 12/34/15
f 38/37/16 27/38/16 25/39/16
f 42/40/17 28/41/17 27/38/17
f 41/14/18 29/42/18 28/41/18
f 40/43/19 30/44/19 29/42/19
f 39/13/20 26/5/20 30/44/20
f 32/8/21 45/45/21 43/9/21
f 36/46/22 46/47/22 45/45/22
f 35/48/23 47/49/23 46/47/23
f 34/50/24 48/51/24 47/49/24
f 33/52/25 44/4/25 48/51/25
f 38/37/26 2/16/26 13/18/26
f 2/3/1 25/53/1 26/5/1
f 25/53/1 27/38/1 26/5/1
f 27/38/1 28/41/1 29/42/1
f 29/42/1 30/44/1 26/5/1
f 26/5/1 31/54/1 32/55/1
f 31/54/1 33/52/1 32/55/1
f 33/52/1 34/50/1 35/48/1
f 35/48/1 36/46/1 32/55/1
f 32/55/1 7/56/1 2/3/1
f 7/56/1 9/57/1 11/58/1
f 9/57/1 10/59/1 11/58/1
f 11/58/1 12/60/1 8/61/1
f 8/61/1 1/62/1 2/3/1
f 1/62/1 3/1/1 2/3/1
f 3/1/1 4/63/1 5/2/1
f 5/2/1 6/64/1 2/3/1
f 27/38/1 29/42/1 26/5/1
f 2/3/1 26/5/1 32/55/1
f 33/52/1 35/48/1 32/55/1
f 7/56/1 11/58/1 8/61/1
f 2/3/1 7/56/1 8/61/1
f 44/4/2 31/54/2 26/5/2
f 20/7/3 7/28/3 32/8/3
f 8/10/4 19/65/4 14/11/4
f 38/15/5 13/66/5 14/11/5
f 13/66/5 15/67/5 14/11/5
f 15/67/5 16/68/5 17/69/5
f 17/69/5 18/70/5 14/11/5
f 14/11/5 19/65/5 20/71/5
f 19/65/5 21/72/5 20/71/5
f 21/72/5 22/73/5 23/74/5
f 23/74/5 24/75/5 20/71/5
f 20/71/5 43/76/5 38/15/5
f 43/76/5 45/45/5 47/49/5
f 45/45/5 46/47/5 47/49/5
f 47/49/5 48/51/5 44/4/5
f 44/4/5 37/6/5 38/15/5
f 37/6/5 39/13/5 38/15/5
f 39/13/5 40/43/5 41/14/5
f 41/14/5 42/40/5 38/15/5
f 15/67/5 17/69/5 14/11/5
f 38/15/5 14/11/5 20/71/5
f 21/72/5 23/74/5 20/71/5
f 43/76/5 47/49/5 44/4/5
f 38/15/5 43/76/5 44/4/5
f 2/16/6 6/19/6 15/17/6
f 6/19/7 5/21/7 16/20/7
f 5/21/8 4/77/8 17/22/8
f 4/23/9 3/26/9 18/24/9
f 3/26/10 1/12/10 14/11/10
f 20/7/11 24/29/11 9/27/11
f 24/29/12 23/31/12 10/30/12
f 23/31/13 22/78/13 11/32/13
f 22/33/14 21/36/14 12/34/14
f 21/36/15 19/65/15 8/10/15
f 38/37/16 42/40/16 27/38/16
f 42/40/17 41/14/17 28/41/17
f 41/14/18 40/43/18 29/42/18
f 40/43/19 39/13/19 30/44/19
f 39/13/20 37/6/20 26/5/20
f 32/8/21 36/46/21 45/45/21
f 36/46/22 35/48/22 46/47/22
f 35/48/23 34/50/23 47/49/23
f 34/50/24 33/52/24 48/51/24
f 33/52/25 31/54/25 44/4/25
f 38/37/26 25/39/26 2/16/26
