# Blender v2.82 (sub 7) OBJ File: ''
# www.blender.org
mtllib input.mtl
o Cylinder.003_Cylinder.004
v 0.349383 0.000000 -1.048148
v -0.349383 -0.401109 -0.968363
v -0.349383 0.000000 -1.048148
v 0.349383 -0.401109 -0.968363
v -0.349383 -0.741153 -0.741153
v 0.349383 -0.741153 -0.741153
v -0.349383 -0.968363 -0.401109
v 0.349383 -0.968363 -0.401109
v -0.349383 -1.048148 -0.000000
v 0.349383 -1.048148 -0.000000
v -0.349383 -0.968363 0.401109
v 0.349383 -0.968363 0.401109
v -0.349383 -0.741153 0.741153
v 0.349383 -0.741153 0.741153
v -0.349383 -0.401109 0.968363
v 0.349383 -0.401109 0.968363
v -0.349383 -0.000000 1.048148
v 0.349383 -0.000000 1.048148
v -0.349383 0.401109 0.968363
v 0.349383 0.401109 0.968363
v -0.349383 0.741152 0.741153
v 0.349383 0.741153 0.741153
v -0.349383 0.968363 0.401109
v 0.349383 0.968363 0.401109
v -0.349383 1.048148 0.000000
v 0.349383 1.048148 0.000000
v -0.349383 0.968363 -0.401109
v 0.349383 0.968363 -0.401109
v -0.349383 0.741152 -0.741153
v 0.349383 0.741153 -0.741153
v -0.349383 0.401108 -0.968363
v 0.349383 0.401109 -0.968363
v 0.194274 -0.000001 -0.322305
v 5.545230 0.000001 -0.322306
v 0.194274 -0.062879 -0.316112
v 5.545230 -0.062878 -0.316113
v 0.194274 -0.123342 -0.297771
v 5.545230 -0.123340 -0.297772
v 0.194274 -0.179064 -0.267987
v 5.545230 -0.179063 -0.267988
v 0.194274 -0.227905 -0.227904
v 5.545230 -0.227904 -0.227905
v 0.194274 -0.267988 -0.179063
v 5.545230 -0.267987 -0.179064
v 0.194274 -0.297772 -0.123341
v 5.545230 -0.297771 -0.123341
v 0.194274 -0.316113 -0.062878
v 5.545230 -0.316112 -0.062879
v 0.194274 -0.322306 0.000000
v 5.545230 -0.322305 -0.000000
v 0.194274 -0.316113 0.062879
v 5.545230 -0.316112 0.062878
v 0.194274 -0.297772 0.123341
v 5.545230 -0.297771 0.123341
v 0.194274 -0.267988 0.179064
v 5.545230 -0.267987 0.179063
v 0.194274 -0.227905 0.227905
v 5.545230 -0.227904 0.227904
v 0.194274 -0.179064 0.267988
v 5.545230 -0.179063 0.267987
v 0.194274 -0.123341 0.297772
v 5.545230 -0.123340 0.297771
v 0.194274 -0.062879 0.316113
v 5.545230 -0.062878 0.316112
v 0.194274 -0.000000 0.322306
v 5.545230 0.000001 0.322305
v 0.194274 0.062878 0.316113
v 5.545230 0.062879 0.316112
v 0.194274 0.123341 0.297772
v 5.545230 0.123342 0.297771
v 0.194274 0.179063 0.267987
v 5.545230 0.179064 0.267987
v 0.194274 0.227904 0.227905
v 5.545230 0.227905 0.227904
v 0.194274 0.267987 0.179064
v 5.545230 0.267988 0.179063
v 0.194274 0.297771 0.123341
v 5.545230 0.297772 0.123340
v 0.194274 0.316112 0.062879
v 5.545230 0.316113 0.062878
v 0.194274 0.322305 0.000000
v 5.545230 0.322306 -0.000001
v 0.194274 0.316112 -0.062879
v 5.545230 0.316113 -0.062879
v 0.194274 0.297771 -0.123341
v 5.545230 0.297772 -0.123342
v 0.194274 0.267987 -0.179063
v 5.545230 0.267988 -0.179064
v 0.194274 0.227904 -0.227904
v 5.545230 0.227905 -0.227905
v 0.194274 0.179062 -0.267987
v 5.545230 0.179063 -0.267988
v 0.194274 0.123340 -0.297771
v 5.545230 0.123341 -0.297772
v 0.194274 0.062878 -0.316112
v 5.545230 0.062879 -0.316113
vt 1.000000 1.000000
vt 0.968750 0.500000
vt 1.000000 0.500000
vt 0.937500 1.000000
vt 0.937500 0.500000
vt 0.906250 0.500000
vt 0.906250 1.000000
vt 0.875000 0.500000
vt 0.843750 1.000000
vt 0.843750 0.500000
vt 0.812500 0.500000
vt 0.812500 1.000000
vt 0.781250 0.500000
vt 0.781250 1.000000
vt 0.750000 0.500000
vt 0.750000 1.000000
vt 0.718750 0.500000
vt 0.718750 1.000000
vt 0.687500 0.500000
vt 0.687500 1.000000
vt 0.656250 0.500000
vt 0.656250 1.000000
vt 0.625000 0.500000
vt 0.593750 1.000000
vt 0.593750 0.500000
vt 0.562500 0.500000
vt 0.562500 1.000000
vt 0.531250 0.500000
vt 0.531250 1.000000
vt 0.500000 0.500000
vt 0.500000 1.000000
vt 0.468750 0.500000
vt 0.468750 1.000000
vt 0.437500 0.500000
vt 0.437500 1.000000
vt 0.406250 0.500000
vt 0.406250 1.000000
vt 0.375000 0.500000
vt 0.375000 1.000000
vt 0.343750 0.500000
vt 0.343750 1.000000
vt 0.312500 0.500000
vt 0.312500 1.000000
vt 0.281250 0.500000
vt 0.281250 1.000000
vt 0.250000 0.500000
vt 0.250000 1.000000
vt 0.218750 0.500000
vt 0.218750 1.000000
vt 0.187500 0.500000
vt 0.187500 1.000000
vt 0.156250 0.500000
vt 0.156250 1.000000
vt 0.125000 0.500000
vt 0.093750 1.000000
vt 0.093750 0.500000
vt 0.062500 0.500000
vt 0.028269 0.341844
vt 0.158156 0.028269
vt 0.471731 0.158156
vt 0.062500 1.000000
vt 0.031250 0.500000
vt 0.031250 1.000000
vt 0.000000 0.500000
vt 0.616663 0.050447
vt 0.514611 0.203179
vt 0.703179 0.485389
vt 0.968750 1.000000
vt 0.875000 1.000000
vt 0.625000 1.000000
vt 0.125000 1.000000
vt 0.341844 0.471731
vt 0.296822 0.485388
vt 0.250000 0.490000
vt 0.203179 0.485389
vt 0.158156 0.471731
vt 0.116663 0.449553
vt 0.080295 0.419706
vt 0.050447 0.383337
vt 0.014612 0.296822
vt 0.010000 0.250000
vt 0.014611 0.203179
vt 0.028269 0.158156
vt 0.050447 0.116663
vt 0.080294 0.080294
vt 0.116663 0.050447
vt 0.203178 0.014612
vt 0.250000 0.010000
vt 0.296822 0.014612
vt 0.341844 0.028269
vt 0.383337 0.050447
vt 0.419706 0.080294
vt 0.449553 0.116663
vt 0.485388 0.203178
vt 0.490000 0.250000
vt 0.485388 0.296822
vt 0.471731 0.341844
vt 0.449553 0.383337
vt 0.419706 0.419706
vt 0.383337 0.449553
vt 0.000000 1.000000
vt 0.750000 0.490000
vt 0.796822 0.485388
vt 0.841844 0.471731
vt 0.883337 0.449553
vt 0.919706 0.419706
vt 0.985388 0.296822
vt 0.949553 0.383337
vt 0.971731 0.341844
vt 0.990000 0.250000
vt 0.985388 0.203178
vt 0.971731 0.158156
vt 0.949553 0.116663
vt 0.919706 0.080294
vt 0.796822 0.014612
vt 0.883337 0.050447
vt 0.841844 0.028269
vt 0.750000 0.010000
vt 0.703178 0.014612
vt 0.658156 0.028269
vt 0.580294 0.080294
vt 0.550447 0.116663
vt 0.528269 0.158156
vt 0.510000 0.250000
vt 0.514612 0.296822
vt 0.528269 0.341844
vt 0.550447 0.383337
vt 0.580295 0.419706
vt 0.616663 0.449553
vt 0.658156 0.471731
vt 1.000000 1.000000
vt 0.937500 0.500000
vt 1.000000 0.500000
vt 0.937500 1.000000
vt 0.875000 0.500000
vt 0.875000 1.000000
vt 0.812500 0.500000
vt 0.812500 1.000000
vt 0.750000 0.500000
vt 0.750000 1.000000
vt 0.687500 0.500000
vt 0.687500 1.000000
vt 0.625000 0.500000
vt 0.625000 1.000000
vt 0.562500 0.500000
vt 0.562500 1.000000
vt 0.500000 0.500000
vt 0.500000 1.000000
vt 0.437500 0.500000
vt 0.437500 1.000000
vt 0.375000 0.500000
vt 0.375000 1.000000
vt 0.312500 0.500000
vt 0.312500 1.000000
vt 0.250000 0.500000
vt 0.250000 1.000000
vt 0.187500 0.500000
vt 0.187500 1.000000
vt 0.125000 0.500000
vt 0.080294 0.419706
vt 0.080294 0.080294
vt 0.419706 0.080294
vt 0.125000 1.000000
vt 0.062500 0.500000
vt 0.062500 1.000000
vt 0.000000 0.500000
vt 0.971731 0.341844
vt 0.841844 0.028269
vt 0.528269 0.158156
vt 0.419706 0.419706
vt 0.341844 0.471731
vt 0.250000 0.490000
vt 0.158156 0.471731
vt 0.028269 0.341844
vt 0.010000 0.250000
vt 0.028269 0.158156
vt 0.158156 0.028269
vt 0.250000 0.010000
vt 0.341844 0.028269
vt 0.471731 0.158156
vt 0.490000 0.250000
vt 0.471731 0.341844
vt 0.000000 1.000000
vt 0.658156 0.471731
vt 0.750000 0.490000
vt 0.841844 0.471731
vt 0.919706 0.419706
vt 0.990000 0.250000
vt 0.971731 0.158156
vt 0.919706 0.080294
vt 0.750000 0.010000
vt 0.658156 0.028269
vt 0.580294 0.080294
vt 0.510000 0.250000
vt 0.528269 0.341844
vt 0.580294 0.419706
vn -0.0000 -0.0980 -0.9952
vn -0.0000 -0.2903 -0.9569
vn -0.0000 -0.4714 -0.8819
vn 0.0000 -0.6344 -0.7730
vn 0.0000 -0.7730 -0.6344
vn 0.0000 -0.8819 -0.4714
vn 0.0000 -0.9569 -0.2903
vn 0.0000 -0.9952 -0.0980
vn 0.0000 -0.9952 0.0980
vn 0.0000 -0.9569 0.2903
vn 0.0000 -0.8819 0.4714
vn 0.0000 -0.7730 0.6344
vn 0.0000 -0.6344 0.7730
vn 0.0000 -0.4714 0.8819
vn 0.0000 -0.2903 0.9569
vn 0.0000 -0.0980 0.9952
vn 0.0000 0.0980 0.9952
vn 0.0000 0.2903 0.9569
vn 0.0000 0.4714 0.8819
vn -0.0000 0.6344 0.7730
vn -0.0000 0.7730 0.6344
vn -0.0000 0.8819 0.4714
vn -0.0000 0.9569 0.2903
vn -0.0000 0.9952 0.0980
vn -0.0000 0.9952 -0.0980
vn -0.0000 0.9569 -0.2903
vn -0.0000 0.8819 -0.4714
vn -0.0000 0.7730 -0.6344
vn -0.0000 0.6344 -0.7730
vn -0.0000 0.4714 -0.8819
vn 1.0000 -0.0000 0.0000
vn -0.0000 0.2903 -0.9569
vn -0.0000 0.0980 -0.9952
vn -1.0000 0.0000 0.0000
vn 1.0000 0.0001 0.0000
vn 1.0000 -0.0001 0.0000
vn 0.0000 -0.1951 -0.9808
vn 0.0000 -0.5556 -0.8315
vn 0.0000 -0.8315 -0.5556
vn 0.0000 -0.9808 -0.1951
vn 0.0000 -0.9808 0.1951
vn 0.0000 -0.8315 0.5556
vn 0.0000 -0.5556 0.8315
vn 0.0000 -0.1951 0.9808
vn 0.0000 0.1951 0.9808
vn -0.0000 0.5556 0.8315
vn -0.0000 0.8315 0.5556
vn 0.0000 0.9808 0.1951
vn 0.0000 0.9808 -0.1951
vn -0.0000 0.8315 -0.5556
vn -0.0000 0.5556 -0.8315
vn -0.0000 0.1951 -0.9808
usemtl None.002
s off
f 34/1/1 35/2/1 33/3/1
f 35/2/2 38/4/2 37/5/2
f 38/4/3 39/6/3 37/5/3
f 40/7/4 41/8/4 39/6/4
f 41/8/5 44/9/5 43/10/5
f 44/9/6 45/11/6 43/10/6
f 46/12/7 47/13/7 45/11/7
f 48/14/8 49/15/8 47/13/8
f 50/16/9 51/17/9 49/15/9
f 52/18/10 53/19/10 51/17/10
f 54/20/11 55/21/11 53/19/11
f 56/22/12 57/23/12 55/21/12
f 57/23/13 60/24/13 59/25/13
f 60/24/14 61/26/14 59/25/14
f 62/27/15 63/28/15 61/26/15
f 64/29/16 65/30/16 63/28/16
f 66/31/17 67/32/17 65/30/17
f 68/33/18 69/34/18 67/32/18
f 70/35/19 71/36/19 69/34/19
f 72/37/20 73/38/20 71/36/20
f 74/39/21 75/40/21 73/38/21
f 76/41/22 77/42/22 75/40/22
f 78/43/23 79/44/23 77/42/23
f 80/45/24 81/46/24 79/44/24
f 82/47/25 83/48/25 81/46/25
f 84/49/26 85/50/26 83/48/26
f 86/51/27 87/52/27 85/50/27
f 88/53/28 89/54/28 87/52/28
f 89/54/29 92/55/29 91/56/29
f 92/55/30 93/57/30 91/56/30
f 86/58/31 70/59/31 54/60/31
f 94/61/32 95/62/32 93/57/32
f 96/63/33 33/64/33 95/62/33
f 71/65/34 79/66/34 95/67/34
f 34/1/1 36/68/1 35/2/1
f 35/2/2 36/68/2 38/4/2
f 38/4/3 40/7/3 39/6/3
f 40/7/4 42/69/4 41/8/4
f 41/8/5 42/69/5 44/9/5
f 44/9/6 46/12/6 45/11/6
f 46/12/7 48/14/7 47/13/7
f 48/14/8 50/16/8 49/15/8
f 50/16/9 52/18/9 51/17/9
f 52/18/10 54/20/10 53/19/10
f 54/20/11 56/22/11 55/21/11
f 56/22/12 58/70/12 57/23/12
f 57/23/13 58/70/13 60/24/13
f 60/24/14 62/27/14 61/26/14
f 62/27/15 64/29/15 63/28/15
f 64/29/16 66/31/16 65/30/16
f 66/31/17 68/33/17 67/32/17
f 68/33/18 70/35/18 69/34/18
f 70/35/19 72/37/19 71/36/19
f 72/37/20 74/39/20 73/38/20
f 74/39/21 76/41/21 75/40/21
f 76/41/22 78/43/22 77/42/22
f 78/43/23 80/45/23 79/44/23
f 80/45/24 82/47/24 81/46/24
f 82/47/25 84/49/25 83/48/25
f 84/49/26 86/51/26 85/50/26
f 86/51/27 88/53/27 87/52/27
f 88/53/28 90/71/28 89/54/28
f 89/54/29 90/71/29 92/55/29
f 92/55/30 94/61/30 93/57/30
f 38/72/31 36/73/31 34/74/31
f 34/74/31 96/75/31 38/72/31
f 96/75/31 94/76/31 38/72/31
f 94/76/31 92/77/31 86/58/31
f 92/77/31 90/78/31 86/58/31
f 90/78/31 88/79/31 86/58/31
f 86/58/31 84/80/31 82/81/31
f 82/81/31 80/82/31 86/58/31
f 80/82/31 78/83/31 86/58/31
f 78/83/31 76/84/31 74/85/31
f 74/85/31 72/86/31 70/59/31
f 70/59/31 68/87/31 66/88/31
f 66/88/31 64/89/31 70/59/31
f 64/89/31 62/90/31 70/59/31
f 62/90/31 60/91/31 58/92/31
f 58/92/35 56/93/35 54/60/35
f 54/60/35 52/94/35 50/95/35
f 50/95/31 48/96/31 54/60/31
f 48/96/36 46/97/36 54/60/36
f 46/97/31 44/98/31 42/99/31
f 42/99/31 40/100/31 38/72/31
f 78/83/31 74/85/31 86/58/31
f 74/85/31 70/59/31 86/58/31
f 62/90/31 58/92/31 70/59/31
f 58/92/31 54/60/31 70/59/31
f 46/97/31 42/99/31 38/72/31
f 38/72/31 94/76/31 86/58/31
f 54/60/31 46/97/31 38/72/31
f 38/72/31 86/58/31 54/60/31
f 94/61/32 96/63/32 95/62/32
f 96/63/33 34/101/33 33/64/33
f 95/67/34 33/102/34 35/103/34
f 35/103/34 37/104/34 95/67/34
f 37/104/34 39/105/34 95/67/34
f 39/105/34 41/106/34 47/107/34
f 41/106/34 43/108/34 47/107/34
f 43/108/34 45/109/34 47/107/34
f 47/107/34 49/110/34 51/111/34
f 51/111/34 53/112/34 47/107/34
f 53/112/34 55/113/34 47/107/34
f 55/113/34 57/114/34 63/115/34
f 57/114/34 59/116/34 63/115/34
f 59/116/34 61/117/34 63/115/34
f 63/115/34 65/118/34 67/119/34
f 67/119/34 69/120/34 63/115/34
f 69/120/34 71/65/34 63/115/34
f 71/65/34 73/121/34 79/66/34
f 73/121/34 75/122/34 79/66/34
f 75/122/34 77/123/34 79/66/34
f 79/66/34 81/124/34 83/125/34
f 83/125/34 85/126/34 79/66/34
f 85/126/34 87/127/34 79/66/34
f 87/127/34 89/128/34 91/129/34
f 91/129/34 93/130/34 95/67/34
f 87/127/34 91/129/34 79/66/34
f 91/129/34 95/67/34 79/66/34
f 95/67/34 39/105/34 63/115/34
f 39/105/34 47/107/34 63/115/34
f 47/107/34 55/113/34 63/115/34
f 63/115/34 71/65/34 95/67/34
s 1
f 1/131/37 2/132/37 3/133/37
f 4/134/38 5/135/38 2/132/38
f 6/136/39 7/137/39 5/135/39
f 8/138/40 9/139/40 7/137/40
f 10/140/41 11/141/41 9/139/41
f 12/142/42 13/143/42 11/141/42
f 14/144/43 15/145/43 13/143/43
f 16/146/44 17/147/44 15/145/44
f 18/148/45 19/149/45 17/147/45
f 20/150/46 21/151/46 19/149/46
f 22/152/47 23/153/47 21/151/47
f 24/154/48 25/155/48 23/153/48
f 26/156/49 27/157/49 25/155/49
f 28/158/50 29/159/50 27/157/50
f 30/160/31 22/161/31 14/162/31
f 30/163/51 31/164/51 29/159/51
f 32/165/52 3/166/52 31/164/52
f 7/167/34 15/168/34 23/169/34
f 1/131/37 4/134/37 2/132/37
f 4/134/38 6/136/38 5/135/38
f 6/136/39 8/138/39 7/137/39
f 8/138/40 10/140/40 9/139/40
f 10/140/41 12/142/41 11/141/41
f 12/142/42 14/144/42 13/143/42
f 14/144/43 16/146/43 15/145/43
f 16/146/44 18/148/44 17/147/44
f 18/148/45 20/150/45 19/149/45
f 20/150/46 22/152/46 21/151/46
f 22/152/47 24/154/47 23/153/47
f 24/154/48 26/156/48 25/155/48
f 26/156/49 28/158/49 27/157/49
f 28/158/50 30/163/50 29/159/50
f 6/170/31 4/171/31 1/172/31
f 1/172/31 32/173/31 30/160/31
f 30/160/31 28/174/31 26/175/31
f 26/175/31 24/176/31 30/160/31
f 24/176/31 22/161/31 30/160/31
f 22/161/31 20/177/31 18/178/31
f 18/178/31 16/179/31 14/162/31
f 14/162/31 12/180/31 10/181/31
f 10/181/31 8/182/31 14/162/31
f 8/182/31 6/170/31 14/162/31
f 6/170/31 1/172/31 30/160/31
f 22/161/31 18/178/31 14/162/31
f 6/170/31 30/160/31 14/162/31
f 30/163/51 32/165/51 31/164/51
f 32/165/52 1/183/52 3/166/52
f 31/184/34 3/185/34 2/186/34
f 2/186/34 5/187/34 7/167/34
f 7/167/34 9/188/34 11/189/34
f 11/189/34 13/190/34 15/168/34
f 15/168/34 17/191/34 19/192/34
f 19/192/34 21/193/34 23/169/34
f 23/169/34 25/194/34 27/195/34
f 27/195/34 29/196/34 23/169/34
f 29/196/34 31/184/34 23/169/34
f 31/184/34 2/186/34 7/167/34
f 7/167/34 11/189/34 15/168/34
f 15/168/34 19/192/34 23/169/34
f 31/184/34 7/167/34 23/169/34
